<svg width="32" height="32" viewBox="0 0 32 32" fill="none" xmlns="http://www.w3.org/2000/svg">
<path d="M25.3333 2H6.66667C4.08934 2 2 4.08934 2 6.66667V25.3333C2 27.9107 4.08934 30 6.66667 30H25.3333C27.9107 30 30 27.9107 30 25.3333V6.66667C30 4.08934 27.9107 2 25.3333 2Z" fill="#B3C0CB"/>
<path d="M23.2395 11.9555C24.4942 11.9555 25.5113 10.9384 25.5113 9.68375C25.5113 8.42909 24.4942 7.41199 23.2395 7.41199C21.9849 7.41199 20.9678 8.42909 20.9678 9.68375C20.9678 10.9384 21.9849 11.9555 23.2395 11.9555Z" fill="#8095A8"/>
<path d="M11.4596 15.3129L6.65039 22.2773C6.14483 23.0097 6.66983 24.0078 7.55779 24.0078H19.2763L13.2745 15.3129C12.837 14.6778 11.8971 14.6778 11.4596 15.3129Z" fill="#002B51"/>
<path d="M20.7247 17.7662L19.4414 19.6264L22.4683 24.0111H24.7562C25.6247 24.0111 26.1368 23.0357 25.6442 22.3227L22.5007 17.7662C22.0729 17.1473 21.1558 17.1473 20.728 17.7662H20.7247Z" fill="#002B51"/>
</svg>
