<svg width="32" height="32" viewBox="0 0 32 32" fill="none" xmlns="http://www.w3.org/2000/svg">
<g clip-path="url(#clip0_174_1699)">
<path d="M29.5643 5.88452H2.43572C1.08917 5.88452 0 6.92274 0 8.2063V19.8934C0 21.177 1.08917 22.2152 2.43572 22.2152H5.58387V16.8392H26.4199V22.2152H29.568C30.9146 22.2152 32.0037 21.177 32.0037 19.8934V8.2063C32.0037 6.92274 30.9146 5.88452 29.568 5.88452H29.5643Z" fill="#196DFF"/>
<path d="M8.04954 0H23.9544C25.3159 0 26.42 1.05244 26.42 2.35022V5.88444H5.58398V2.35022C5.58398 1.05244 6.68808 0 8.04954 0Z" fill="#D1E2FF"/>
<path d="M5.58398 16.8391H26.42V29.6498C26.42 30.9476 25.3159 32 23.9544 32H8.04954C6.68808 32 5.58398 30.9476 5.58398 29.6498V16.8391Z" fill="#75A7FF"/>
<path d="M26.4202 13.2124H25.6033C24.5738 13.2124 23.7383 12.416 23.7383 11.4346C23.7383 10.4533 24.5738 9.65686 25.6033 9.65686H26.4202C27.4497 9.65686 28.2852 10.4533 28.2852 11.4346C28.2852 12.416 27.4497 13.2124 26.4202 13.2124Z" fill="#D1E2FF"/>
</g>
<defs>
<clipPath id="clip0_174_1699">
<rect width="32" height="32" fill="white"/>
</clipPath>
</defs>
</svg>
