<svg width="28" height="28" viewBox="0 0 28 28" fill="none" xmlns="http://www.w3.org/2000/svg">
<g clip-path="url(#clip0_175_450)">
<path d="M27.6182 17.2447C29.4114 9.72356 24.7679 2.17278 17.2468 0.379594C9.72558 -1.41359 2.1748 3.22987 0.381613 10.751C-1.41157 18.2722 3.23188 25.823 10.7531 27.6162C18.2742 29.4094 25.825 24.7659 27.6182 17.2447Z" fill="#002B51"/>
<path fill-rule="evenodd" clip-rule="evenodd" d="M16.5168 6.61422C15.5586 6.23778 14.4728 6.71067 14.0964 7.67511C13.7168 8.63644 14.1866 9.72533 15.1448 10.1018C16.1031 10.4782 17.1888 10.0053 17.5653 9.04089C17.9448 8.07956 17.4751 6.99067 16.5168 6.61422Z" fill="#D9DFE5"/>
<path d="M11.0661 21.7062C10.7364 21.7062 10.4128 21.5756 10.1764 21.3298C9.83414 20.9782 9.73147 20.4618 9.90881 20.0044L11.9093 14.924L11.5733 15.0671C10.9386 15.3347 10.2106 15.0391 9.94303 14.4044C9.67547 13.7698 9.97103 13.0418 10.6057 12.7742L13.6701 11.48C14.1306 11.284 14.6657 11.3867 15.0235 11.7351C15.3813 12.0836 15.4964 12.6156 15.3128 13.0822L13.2408 18.3431L14.1213 18.0227C14.7684 17.7862 15.4808 18.1191 15.7173 18.7662C15.9537 19.4133 15.6208 20.1258 14.9737 20.3622L11.4955 21.6316C11.3555 21.6813 11.2124 21.7062 11.0693 21.7062H11.0661Z" fill="#D9DFE5"/>
</g>
<defs>
<clipPath id="clip0_175_450">
<rect width="28" height="28" fill="white"/>
</clipPath>
</defs>
</svg>
