<svg width="32" height="32" viewBox="0 0 32 32" fill="none" xmlns="http://www.w3.org/2000/svg">
<path d="M20.375 5.4325C16.4955 4.78726 13.8125 1.495 9.07084 2.06626C4.73928 2.80506 2.40819 5.44407 2 5.83444V24.7254L7.44144 29.9325H24.5552L29.9966 24.7287V4.16216C29.9966 3.65537 29.2277 3.40456 28.8473 3.73939C25.7346 6.47898 20.375 5.4325 20.375 5.4325Z" fill="#D1E2FF"/>
<path d="M28.4436 24.2866L23.8909 30H8C4.68629 30 2 27.3137 2 24V7.98151C2 7.57294 2.46346 7.33685 2.79396 7.57706L4.94516 9.14055L7.54937 10.801C7.583 10.8225 7.61908 10.8398 7.65684 10.8527L10.6471 11.8722C10.7681 11.9134 10.8686 11.9994 10.9282 12.1124L12.2356 14.5947C12.2828 14.6843 12.356 14.7574 12.4456 14.8044L15.9329 16.6355C15.9705 16.6553 16.0104 16.6701 16.0517 16.6798L26.7759 19.1813C26.8857 19.2069 27.0009 19.1946 27.1029 19.1465L28.0423 18.7031C28.2834 18.5894 28.5713 18.6847 28.6968 18.9199L29.8749 21.127C29.9531 21.2735 29.9535 21.4493 29.8758 21.5962L28.4946 24.2087C28.48 24.2362 28.463 24.2622 28.4436 24.2866Z" fill="#75A7FF"/>
<path d="M8 29.2071V30H24C27.3137 30 30 27.3137 30 24V17.7436C30 17.3885 29.6402 17.1466 29.3114 17.2806L27.6063 17.9752C27.5077 18.0154 27.4245 18.086 27.3688 18.1767L26.3058 19.9091C26.2273 20.0369 26.0956 20.1228 25.9469 20.143L22.6277 20.5938C22.4627 20.6162 22.3196 20.7193 22.2462 20.8689L21.1663 23.0686C21.1174 23.1682 21.0368 23.2487 20.9371 23.2974L17.9787 24.7437C17.9326 24.7663 17.8832 24.7816 17.8324 24.7891L11.0492 25.7941C10.9576 25.8076 10.8716 25.8464 10.8007 25.906L9.5545 26.9541C9.51827 26.9845 9.48656 27.02 9.4603 27.0594L8.52733 28.4588C8.50908 28.4862 8.48817 28.5117 8.4649 28.535L8.14641 28.8536C8.05266 28.9473 8 29.0745 8 29.2071Z" fill="#196DFF"/>
<path fill-rule="evenodd" clip-rule="evenodd" d="M14.9566 15.4253C14.9566 15.4332 14.9567 15.441 14.9571 15.4488L14.9571 18.8251H13.5954C13.3591 18.8251 13.144 18.9605 13.0499 19.1699C13.0173 19.2441 13 19.322 13 19.3998C13 19.5426 13.0538 19.6816 13.1594 19.791L16.0633 22.8165C16.1766 22.9333 16.3341 23 16.4993 23C16.6645 23 16.8258 22.9314 16.9372 22.8146L19.8411 19.7891C20.0024 19.6223 20.0447 19.3776 19.9506 19.1699C19.8564 18.9605 19.6413 18.8251 19.4051 18.8251H18.0434L18.0429 15.4253L18.0434 13.5747C18.0434 13.5668 18.0433 13.559 18.0429 13.5512V10.1749H19.4046C19.6409 10.1749 19.856 10.0395 19.9501 9.83006C19.9827 9.75591 20 9.67805 20 9.60019C20 9.45744 19.9462 9.3184 19.8406 9.20902L16.9367 6.18353C16.8234 6.06674 16.6659 6 16.5007 6C16.3355 6 16.1742 6.06859 16.0628 6.18539L13.1589 9.21088C12.9976 9.37772 12.9553 9.62243 13.0494 9.83006C13.1436 10.0395 13.3587 10.1749 13.5949 10.1749H14.9566L14.9571 13.5747L14.9566 15.4253Z" fill="#196DFF"/>
</svg>
