<svg width="32" height="32" viewBox="0 0 32 32" fill="none" xmlns="http://www.w3.org/2000/svg">
<path d="M28.3751 18.4867C23.8779 18.4867 25.5992 6 20.0217 6C13.2329 6 17.098 15.5133 7.88594 15.5133C3.96546 15.5133 3 11.946 3 11.946V28H32V12.5407C32 12.5407 31.6675 18.4867 28.3751 18.4867Z" fill="#B3C0CB"/>
<path d="M26.2933 24.7502C19.6435 24.7502 22.1753 15 15.6959 15C11.5563 15 12.2501 20.4168 7.05442 20.4168C2.344 20.4168 2 15.5418 2 15.5418V28H32V21.5003C32 21.5003 30.349 24.7502 26.2933 24.7502Z" fill="#8095A8"/>
<path d="M32 26.1765H0V28.4706H32V26.1765Z" fill="#002B51"/>
<path d="M4.10265 5.52942H1.64111V30H4.10265V5.52942Z" fill="#002B51"/>
<path d="M23.9943 14C22.3258 14 20.9097 13.417 19.7458 12.251C18.5819 11.0848 18 9.66887 18 8.00316C18 6.33745 18.5826 4.9205 19.7479 3.7523C20.9132 2.5841 22.3283 2 23.9931 2C25.6579 2 27.0753 2.58301 28.2453 3.74902C29.4151 4.91503 30 6.33097 30 7.99684C30 9.66255 29.4161 11.0795 28.2483 12.2477C27.0805 13.4159 25.6625 14 23.9943 14ZM24.4782 7.83967V4.99092C24.4782 4.85819 24.4332 4.74693 24.3431 4.65714C24.253 4.56735 24.1414 4.52246 24.0083 4.52246C23.8752 4.52246 23.7639 4.56735 23.6743 4.65714C23.5847 4.74693 23.5399 4.85819 23.5399 4.99092V7.96217C23.5399 8.05789 23.5573 8.15057 23.5922 8.24021C23.627 8.32984 23.6854 8.41549 23.7672 8.49716L25.8243 10.5514C25.9242 10.651 26.035 10.6979 26.1565 10.6919C26.278 10.6858 26.3886 10.6359 26.4884 10.5423C26.5884 10.4486 26.6383 10.3381 26.6383 10.2108C26.6383 10.0834 26.5884 9.96986 26.4884 9.87024L24.4782 7.83967Z" fill="#002B51"/>
</svg>
