<svg width="28" height="32" viewBox="0 0 28 32" fill="none" xmlns="http://www.w3.org/2000/svg">
<path d="M3.11133 28.2738H3.48179H25.778V19.427H25.3066C24.3187 19.427 23.3538 19.2395 22.412 18.8643C21.4704 18.4891 20.5373 17.9432 19.6127 17.2266C18.8063 17.9146 17.985 18.4413 17.1487 18.8068C16.3122 19.1723 15.3926 19.3551 14.3901 19.3551C13.3876 19.3551 12.4682 19.1723 11.6319 18.8068C10.7953 18.4413 9.9739 17.9146 9.16758 17.2266C8.23777 17.9432 7.30466 18.4891 6.36824 18.8643C5.43206 19.2395 4.46991 19.427 3.48179 19.427H3.11133V28.2738Z" fill="#D1E2FF"/>
<path d="M26.4443 18.1909C26.4443 17.0863 25.8271 16.7797 25.6686 17.8728C25.4773 19.1913 25.2114 20.8343 23.4443 21.0241C20.5541 21.3345 21.5312 24.902 20.1163 25.4508C20.0056 25.4937 19.8885 25.5216 19.7777 25.5644C18.3032 26.1346 17.4786 26.4261 16.0285 25.3988C15.8602 25.2796 15.7171 25.1277 15.609 24.9521C14.957 23.8928 14.0764 21.9907 12.8581 21.9907C11.8459 21.9907 10.3912 22.5533 9.75833 22.8201C9.54869 22.9085 9.32927 22.9686 9.10223 22.983C8.59108 23.0157 7.60008 23.0567 6.77767 22.9574C6.12435 22.8785 5.31948 22.003 4.82002 21.3007C4.55467 20.9276 4.22792 20.5473 4.08667 20.1118C3.88954 19.5039 3.74448 18.5452 3.52221 17.7279C3.23233 16.662 2.44437 17.0864 2.4444 18.191L2.44472 28C2.44476 29.1046 3.34018 30 4.44472 30H24.4443C25.5489 30 26.4443 29.1045 26.4443 28V18.1909Z" fill="#196DFF"/>
<path d="M24.912 2H3.97665C2.76219 2 2.44434 2.32919 2.44434 3.58698V7.89967C2.44434 9.15746 2.76219 9.48666 3.97665 9.48666H24.912C26.1265 9.48666 26.4443 9.15746 26.4443 7.89967V3.58698C26.4443 2.32919 26.1265 2 24.912 2Z" fill="#75A7FF"/>
<path d="M5.62012 3.90002C6.13032 3.90002 6.54395 4.33566 6.54395 4.87463V7.4635C6.54395 7.73286 6.43911 7.97596 6.27344 8.15295C6.10507 8.32997 5.87522 8.43909 5.62012 8.43909C5.10996 8.43903 4.69629 8.00244 4.69629 7.4635V4.87463C4.69629 4.33569 5.10996 3.90008 5.62012 3.90002Z" fill="#D1E2FF"/>
<path d="M14.5059 3.90002C15.0159 3.90026 15.4287 4.3358 15.4287 4.87463V7.4635C15.4287 7.73297 15.324 7.97594 15.1582 8.15295C14.9899 8.32987 14.7608 8.43897 14.5059 8.43909C13.9957 8.43909 13.582 8.00248 13.582 7.4635V4.87463C13.582 4.33566 13.9957 3.90002 14.5059 3.90002Z" fill="#D1E2FF"/>
<path d="M8.58203 4.95862C9.0922 4.95867 9.50586 5.39526 9.50586 5.9342V7.4635C9.50586 7.73283 9.401 7.97596 9.23535 8.15295C9.067 8.32995 8.8371 8.43809 8.58203 8.43811C8.07183 8.43811 7.6582 8.00248 7.6582 7.4635V5.9342C7.6582 5.39523 8.07183 4.95862 8.58203 4.95862Z" fill="#D1E2FF"/>
<path d="M11.5459 4.95667C12.0561 4.95667 12.4697 5.39233 12.4697 5.93127V7.46155C12.4696 7.73085 12.3649 7.97409 12.1992 8.151H12.1963C12.028 8.32771 11.7987 8.43609 11.5439 8.43616C11.0339 8.43616 10.6204 8.0003 10.6201 7.46155V5.93127C10.6201 5.39245 11.0333 4.95686 11.5459 4.95667Z" fill="#D1E2FF"/>
<path d="M17.4668 4.77991C17.977 4.77991 18.3906 5.21554 18.3906 5.75452V7.46155C18.3905 7.7309 18.2859 7.97406 18.1201 8.151C17.9518 8.32794 17.7218 8.43616 17.4668 8.43616C16.9568 8.43599 16.5441 8.00026 16.5439 7.46155V5.75452C16.5439 5.21564 16.9567 4.78008 17.4668 4.77991Z" fill="#D1E2FF"/>
<path d="M20.4287 4.77991C20.9389 4.77991 21.3525 5.21554 21.3525 5.75452V7.46155C21.3525 7.7309 21.2478 7.97406 21.082 8.151C20.9137 8.32799 20.6838 8.43616 20.4287 8.43616C19.9187 8.43608 19.506 8.00032 19.5059 7.46155V5.75452C19.5059 5.21559 19.9186 4.77998 20.4287 4.77991Z" fill="#D1E2FF"/>
<path d="M23.3906 3.89709C23.9008 3.89711 24.3144 4.33277 24.3145 4.8717V7.46057C24.3145 7.73006 24.2098 7.97398 24.0439 8.151C23.8756 8.32795 23.6457 8.43615 23.3906 8.43616C22.8804 8.43616 22.4668 7.99955 22.4668 7.46057V4.8717C22.4668 4.33276 22.8804 3.89709 23.3906 3.89709Z" fill="#D1E2FF"/>
<path fill-rule="evenodd" clip-rule="evenodd" d="M12.0994 8.21226C12.0889 8.21226 12.0785 8.21248 12.0681 8.21292L7.56629 8.21292L7.56629 6.37093C7.56629 6.05138 7.38585 5.7604 7.10653 5.6331C7.00766 5.58893 6.90384 5.56555 6.80003 5.56555C6.6097 5.56555 6.42432 5.6383 6.27848 5.78119L2.24449 9.70937C2.08877 9.86265 1.99978 10.0757 1.99978 10.2991C1.99978 10.5225 2.09124 10.7408 2.24697 10.8915L6.28095 14.8196C6.50341 15.0379 6.82969 15.095 7.10653 14.9677C7.38585 14.8404 7.56629 14.5495 7.56629 14.2299L7.56629 12.3879L12.0994 12.3873L14.5669 12.3879C14.5773 12.3879 14.5878 12.3877 14.5982 12.3873L21.3222 12.3873L21.3222 14.2292C21.3222 14.5488 21.5026 14.8398 21.7819 14.9671C21.8808 15.0112 21.9846 15.0346 22.0884 15.0346C22.2788 15.0346 22.4641 14.9619 22.61 14.819L26.644 10.8908C26.7997 10.7375 26.8887 10.5245 26.8887 10.3011C26.8887 10.0776 26.7972 9.85939 26.6415 9.70871L22.6075 5.78052C22.385 5.56229 22.0588 5.50514 21.7819 5.63244C21.5026 5.75974 21.3222 6.05072 21.3222 6.37027L21.3222 8.21226L14.5669 8.21292L12.0994 8.21226Z" fill="#196DFF"/>
</svg>
