<svg width="32" height="32" viewBox="0 0 32 32" fill="none" xmlns="http://www.w3.org/2000/svg">
<path d="M1 0.5C1 0.223858 1.22386 0 1.5 0H30.5C30.7761 0 31 0.223858 31 0.5V14.5C31 14.7761 30.7761 15 30.5 15H27.5C27.2239 15 27 14.7761 27 14.5V10C27 4 18 4 11 4H1.5C1.22386 4 1 3.77614 1 3.5V0.5Z" fill="#B3C0CB"/>
<path d="M15.4707 16.0423L18.2582 14.626V17.6896L15.4707 16.7987V16.0423Z" fill="#B3C0CB"/>
<path d="M18.2578 14.626L25.0274 17.1204V20.3274L18.2578 17.8331V14.626Z" fill="#002B51"/>
<path d="M6.51025 21.0403C6.51025 21.0403 11.1295 15.909 11.2888 15.3389L13.6781 28.8799C10.0534 27.0978 8.49313 25.5049 6.51025 21.0403Z" fill="#B3C0CB"/>
<path d="M11.2881 15.3389L30.9996 22.1094L28.013 28.8799H13.6774L11.2881 15.3389Z" fill="#8095A8"/>
<path d="M6.15922 26.6202C5.23598 27.5444 3.74481 27.4866 2.51724 27.1752C1.79651 26.9924 1 27.4954 1 28.239V32H30.9999V27.9638C30.9999 27.5445 30.7392 27.1698 30.3392 27.0438C29.4209 26.7546 27.8016 26.3193 27.1783 26.6202C26.6687 27.1223 25.3821 27.8253 22.7834 26.6202C20.1847 25.4151 18.0063 26.1181 17.242 26.6202C16.2866 27.0506 14.07 27.6531 12.8471 26.6202C11.3184 25.3291 7.87896 24.8987 6.15922 26.6202Z" fill="#002B51"/>
<path fill-rule="evenodd" clip-rule="evenodd" d="M4.0081 17.1346C4.0081 17.1439 4.0083 17.1532 4.0087 17.1625L4.0087 18.7973H2.34134C2.05208 18.7973 1.78868 18.958 1.67345 19.2069C1.63347 19.295 1.6123 19.3874 1.6123 19.4799C1.6123 19.6495 1.67815 19.8146 1.8075 19.9446L5.36329 23.5383C5.50204 23.677 5.69488 23.7563 5.89713 23.7563C6.09938 23.7563 6.29692 23.6748 6.43332 23.5361L9.98911 19.9424C10.1867 19.7442 10.2384 19.4535 10.1232 19.2069C10.0079 18.958 9.74454 18.7973 9.45528 18.7973H7.78791L7.78731 17.1346L7.78791 14.9364C7.78791 14.9271 7.78771 14.9178 7.78731 14.9085V10.8981H9.45468C9.74394 10.8981 10.0073 10.7373 10.1226 10.4885C10.1625 10.4004 10.1837 10.3079 10.1837 10.2154C10.1837 10.0459 10.1179 9.88072 9.98851 9.7508L6.43272 6.15709C6.29397 6.01836 6.10113 5.93909 5.89888 5.93909C5.69663 5.93909 5.49909 6.02056 5.36269 6.15929L1.8069 9.75301C1.60935 9.95119 1.55762 10.2419 1.67285 10.4885C1.78808 10.7373 2.05148 10.8981 2.34074 10.8981H4.0081L4.0087 14.9364L4.0081 17.1346Z" fill="#002B51"/>
</svg>
