<svg width="14" height="14" viewBox="0 0 14 14" fill="none" xmlns="http://www.w3.org/2000/svg">
<path d="M6.97946 8.08338C6.68321 8.08338 6.42933 7.97616 6.2178 7.76171C6.00627 7.54713 5.90051 7.29178 5.90051 6.99567C5.90051 6.69942 6.00773 6.44553 6.22217 6.23401C6.43676 6.02248 6.6921 5.91672 6.98821 5.91672C7.28446 5.91672 7.53835 6.02394 7.74988 6.23838C7.96141 6.45297 8.06717 6.70831 8.06717 7.00442C8.06717 7.30067 7.95995 7.55456 7.74551 7.76609C7.53092 7.97762 7.27558 8.08338 6.97946 8.08338ZM6.98384 13.5834C5.1569 13.5834 3.59946 12.9429 2.31155 11.6619C1.02363 10.381 0.389325 8.82699 0.408631 7.00005H1.47592C1.51967 8.52255 2.0712 9.81984 3.13051 10.8919C4.18981 11.964 5.47426 12.5 6.98384 12.5C8.51592 12.5 9.81565 11.9669 10.883 10.9005C11.9502 9.83408 12.4838 8.53547 12.4838 7.00463C12.4838 5.4738 11.9502 4.17366 10.883 3.10422C9.81565 2.03477 8.51592 1.50005 6.98384 1.50005C6.21245 1.50005 5.48092 1.65713 4.78926 1.9713C4.09745 2.28533 3.47801 2.72012 2.93092 3.27567H5.04801V4.35901H0.817172V0.128174H1.90051V2.85255C2.53384 2.08102 3.29127 1.4822 4.1728 1.05609C5.05433 0.62984 5.99134 0.416715 6.98384 0.416715C7.89773 0.416715 8.7537 0.589423 9.55176 0.93484C10.35 1.28026 11.046 1.74998 11.6399 2.34401C12.2339 2.9379 12.7036 3.63387 13.049 4.43192C13.3945 5.22998 13.5672 6.08588 13.5672 6.99963C13.5672 7.91338 13.3945 8.76942 13.049 9.56776C12.7036 10.3661 12.2339 11.0622 11.6399 11.6561C11.046 12.2501 10.35 12.7198 9.55176 13.0653C8.7537 13.4107 7.89773 13.5834 6.98384 13.5834Z" fill="#555555"/>
</svg>
